<?xml version="1.0" encoding="UTF-8" standalone="no"?>
<svg
   xmlns:dc="http://purl.org/dc/elements/1.1/"
   xmlns:cc="http://creativecommons.org/ns#"
   xmlns:rdf="http://www.w3.org/1999/02/22-rdf-syntax-ns#"
   xmlns:svg="http://www.w3.org/2000/svg"
   xmlns="http://www.w3.org/2000/svg"
   xmlns:sodipodi="http://sodipodi.sourceforge.net/DTD/sodipodi-0.dtd"
   xmlns:inkscape="http://www.inkscape.org/namespaces/inkscape"
   width="100mm"
   height="34mm"
   viewBox="0 0 100 34"
   version="1.1"
   id="svg1241"
   sodipodi:docname="watttron.svg"
   inkscape:version="1.0 (4035a4fb49, 2020-05-01)">
  <defs
     id="defs1235" />
  <sodipodi:namedview
     id="base"
     pagecolor="#ffffff"
     bordercolor="#666666"
     borderopacity="1.0"
     inkscape:pageopacity="0.0"
     inkscape:pageshadow="2"
     inkscape:zoom="0.7"
     inkscape:cx="120.47288"
     inkscape:cy="160.16196"
     inkscape:document-units="mm"
     inkscape:current-layer="layer1"
     inkscape:document-rotation="0"
     showgrid="false"
     inkscape:window-width="1920"
     inkscape:window-height="1015"
     inkscape:window-x="1920"
     inkscape:window-y="0"
     inkscape:window-maximized="1" />
  <metadata
     id="metadata1238">
    <rdf:RDF>
      <cc:Work
         rdf:about="">
        <dc:format>image/svg+xml</dc:format>
        <dc:type
           rdf:resource="http://purl.org/dc/dcmitype/StillImage" />
        <dc:title />
      </cc:Work>
    </rdf:RDF>
  </metadata>
  <g
     inkscape:label="Layer 1"
     inkscape:groupmode="layer"
     id="layer1">
    <path
       style="fill:#000000;stroke-width:0.0405152"
       id="path3315"
       d="" />
    <g
       id="g3317"
       transform="matrix(-0.3195453,0,0,0.3195453,107.3274,40.395663)">
      <path
         id="path3319"
         style="fill:#000000;stroke-width:0.12679"
         d="m 201.94268,-122.14541 c -2.07553,0.0236 -4.15106,0.048 -6.22656,0.0742 -0.50667,3.81033 -1.01189,7.60541 -1.53906,11.41211 -2.3223,0.56315 -4.6689,1.029 -6.99024,1.5918 -0.71508,0.49703 -0.38086,1.52435 -0.47358,2.26444 -0.006,1.24127 -0.002,2.48256 -0.003,3.72384 2.44531,0 4.89063,0 7.33594,0 0.0665,7.455406 1.1e-4,14.913616 0.19587,22.366926 0.20614,3.08455 0.97325,6.25834 2.82171,8.789321 1.38687,1.87245 3.61869,3.01268 5.8948,3.33461 3.34414,0.16333 6.69541,0.0918 10.0427,0.12437 -0.0462,-1.82318 0.0992,-3.664421 -0.0937,-5.476561 -0.21076,-0.75532 -1.18811,-0.50619 -1.76368,-0.7793 -2.07577,-0.58 -4.20482,-1.02929 -6.21289,-1.81445 -1.73343,-0.96853 -2.18187,-3.12951 -2.35275,-4.94761 -0.15638,-7.19781 -0.0779,-14.3983 -0.10037,-21.597306 3.71875,0 7.4375,0 11.15625,0 0,-2.55013 0,-5.10026 0,-7.65039 -3.71875,0 -7.4375,0 -11.15625,0 0,-3.80729 0,-7.61459 0,-11.42188 -0.17839,0.002 -0.35677,0.004 -0.53516,0.006 z m -64.99609,0.46289 c -0.52266,3.65658 -0.90162,7.3229 -1.54367,10.95927 -0.66482,0.34196 -1.54399,0.38861 -2.3128,0.61002 -1.57344,0.3962 -3.21497,0.61041 -4.75291,1.12993 -0.55201,0.79901 -0.22871,1.86709 -0.3295,2.78007 -0.001,1.04141 -1.6e-4,2.08282 -5.7e-4,3.12423 2.44531,0 4.89062,0 7.33593,0 0.0644,7.287156 0.004,14.576636 0.17967,21.862096 0.11588,3.06664 0.75076,6.2408 2.49062,8.82063 1.63846,2.496841 4.616,3.960461 7.58037,3.884921 2.90065,0.0374 5.80163,0.0368 8.70247,0.0476 -0.0458,-1.82075 0.098,-3.658221 -0.0918,-5.468751 -0.20223,-0.76437 -1.19356,-0.5121 -1.76953,-0.78906 -2.0551,-0.57311 -4.1601,-1.02471 -6.15202,-1.78961 -1.82314,-0.98981 -2.38028,-3.26133 -2.36811,-5.12935 -0.16186,-7.14438 -0.0932,-14.29252 -0.14784,-21.438456 3.72135,0 7.44271,0 11.16406,0 0,-2.55078 0,-5.10156 0,-7.65235 -3.7194,0 -7.4388,0 -11.1582,0 0,-3.80338 0,-7.60677 0,-11.41015 -2.25456,0 -4.50912,0 -6.76367,0 -0.0208,0.15299 -0.0417,0.30599 -0.0625,0.45898 z m 30.71484,-0.44726 c -0.43523,-0.001 -0.86906,0.0241 -1.30273,0.0586 -0.49259,3.80427 -1.01812,7.61663 -1.58399,11.42188 -2.39949,0.57187 -4.85047,1.08454 -7.2832,1.62304 -0.0286,1.98241 -0.0546,3.96485 -0.082,5.94727 2.45247,0 4.90495,0 7.35742,0 0.0565,7.579476 -0.0121,15.161336 0.16335,22.739076 0.16402,2.72823 0.87578,5.4935 2.3573,7.81239 1.67914,2.642041 4.84435,4.195911 7.95591,4.016891 2.82283,0.031 5.6458,0.0387 8.46875,0.0488 0,-1.94662 0,-3.893231 0,-5.839851 -2.73516,-0.60987 -5.44108,-1.26842 -8.10937,-2.20703 -1.61664,-0.83884 -2.12495,-2.8063 -2.35656,-4.4728 -0.20767,-5.08753 -0.1098,-10.18367 -0.16759,-15.27482 -0.01,-2.27423 -0.0191,-4.548456 -0.0286,-6.822686 3.76563,0 7.53125,0 11.29688,0 0,-2.55013 0,-5.10026 0,-7.65039 -3.76172,0 -7.52344,0 -11.28516,0 0,-3.80404 0,-7.60808 0,-11.41211 -1.80015,1.6e-4 -3.60028,-0.004 -5.40039,0.0117 z m -58.91015,10.76953 c -6.11208,0.0985 -12.252712,0.75988 -18.146488,2.42969 0,2.02083 0,4.04166 0,6.0625 4.836066,-0.46801 9.682198,-0.64356 14.541378,-0.84031 2.46059,-0.0206 4.94846,-0.21858 7.39159,0.13221 1.46694,0.29941 2.66977,1.45369 3.00844,2.91513 0.36981,2.022706 0.20584,4.104496 0.30859,6.152336 -5.85515,0.0576 -11.71324,-0.0201 -17.566404,0.14453 -3.303059,0.33006 -6.432828,2.42222 -7.85285,5.45093 -0.86817,1.7191 -1.236911,3.6486 -1.144215,5.56782 0.05661,2.48026 -0.181943,4.99786 0.276412,7.44957 0.756781,2.80352 2.614235,5.365261 5.261154,6.650321 1.757988,0.91492 3.738654,1.36737 5.720793,1.24937 2.2859,0.0254 4.55946,-0.33833 6.72231,-1.07912 3.04531,-0.95994 5.98032,-2.24253 8.79765,-3.740061 0.53964,1.454561 1.06389,2.985381 1.59375,4.476561 2.15559,0 4.31119,0 6.46679,0 -0.0535,-10.569431 0.002,-21.140051 -0.13962,-31.708627 -0.0242,-2.84646 -1.10838,-5.71167 -3.04507,-7.80862 -2.41241,-2.55951 -6.05853,-3.58998 -9.49672,-3.50406 -0.89917,-0.0128 -1.79831,-0.01 -2.69749,-1.7e-4 z m 209.6289,0.0879 c -4.51827,0.0323 -8.60992,2.2621 -12.37331,4.54276 -0.5545,0.49485 -0.94826,0.50711 -1.05006,-0.30061 -0.45181,-1.07782 -0.78385,-2.21693 -1.29733,-3.2734 -0.89089,-0.50815 -1.99724,-0.20049 -2.97772,-0.29989 -1.13633,-0.002 -2.27267,-2.9e-4 -3.409,-8.9e-4 0,14.088536 0,28.177076 0,42.265617 2.76172,0 5.52344,0 8.28516,0 0,-10.468101 0,-20.936201 0,-31.404291 3.57531,-1.784176 7.27595,-3.685136 11.35634,-3.827156 1.81456,-0.10915 3.84568,-0.19622 5.33542,1.03436 1.42802,1.08705 2.07485,2.982826 2.05024,4.674756 0.18574,6.65114 0.0697,13.30706 0.10565,19.96022 0,3.18737 0,6.374741 0,9.562111 2.76172,0 5.52344,0 8.28516,0 -0.0266,-9.949011 0.0634,-19.899241 -0.0761,-29.847411 -0.0179,-4.077256 -1.77364,-8.237256 -5.09007,-10.710346 -2.29109,-1.75175 -5.22565,-2.5368 -8.08893,-2.39708 -0.35186,-7e-5 -0.70366,0.0158 -1.05547,0.0212 z m -78.35351,0.23437 c -3.67192,0.0518 -7.1207,1.63971 -10.22852,3.47461 -0.92632,0.57231 -1.84977,1.14745 -2.76758,1.73438 -0.51303,-1.59201 -1.02591,-3.18406 -1.54101,-4.77539 -2.14909,0 -4.29818,0 -6.44727,0 0,14.088536 0,28.177076 0,42.265617 2.76107,0 5.52214,0 8.28321,0 0.0225,-10.067701 0.0425,-20.135421 0.0664,-30.203121 2.70086,-1.606456 5.52637,-3.168366 8.64035,-3.780686 3.02323,-0.47764 6.14244,-0.39633 9.15278,-0.21129 0.55723,-0.0767 1.23707,0.42617 1.67866,-0.0274 0.41195,-0.98079 0.1586,-2.11535 0.24098,-3.15912 -0.0375,-1.44699 0.0935,-2.91287 -0.12488,-4.34688 -0.37951,-0.8149 -1.48976,-0.71283 -2.24805,-0.85938 -1.56397,-0.14012 -3.13638,-0.12069 -4.70507,-0.11133 z m 25.30859,0.0645 c -2.66635,0.0451 -5.34168,-0.0424 -8.00195,0.14453 -2.54368,0.54218 -4.74223,2.40142 -5.6884,4.82754 -0.1957,0.92326 -0.0226,1.93246 -0.0811,2.88769 0,6.917836 0,13.835676 0,20.753516 0.68904,1.694 1.85202,3.22219 3.48748,4.09285 1.48135,0.85189 3.28116,1.25283 4.96369,0.94621 0.73144,-0.37346 0.12183,-1.26646 0.0492,-1.85455 -0.82661,-3.0754 -0.83454,-6.29018 -0.18389,-9.36044 1.37904,-6.46758 6.20443,-12.042466 12.38987,-14.370536 2.23838,-0.90689 4.64824,-1.3396 7.06275,-1.26066 2.57296,-0.0568 5.14967,0.39107 7.51962,1.4067 1.34554,0.56245 2.60889,1.2569 3.92417,1.89066 0.60084,-0.94123 0.23365,-2.11328 0.28075,-3.16328 0.0469,-2.74219 -1.86699,-5.19905 -4.31739,-6.27096 -1.67645,-0.79077 -3.59914,-0.55674 -5.39847,-0.64959 -5.33517,-0.0416 -10.67097,-0.0232 -16.0063,-0.0197 z m -178.15039,0.36718 c -2.744789,0.0237 -5.489598,0.0453 -8.234375,0.0703 -3.643766,10.07289 -7.264203,20.176516 -10.943359,30.222646 -2.711621,-5.87822 -5.277048,-11.82253 -7.910157,-17.73633 -2.529948,5.6e-4 -5.059896,-6e-4 -7.589843,-0.002 -2.065217,5.86237 -4.113651,11.73019 -6.21875,17.57813 -3.586485,-10.00965 -7.113421,-20.040586 -10.666016,-30.062496 -2.76383,0.008 -5.53586,-0.12551 -8.294922,0.0254 -0.950387,-0.0286 -0.385028,0.72687 -0.221962,1.2733 4.925282,13.625386 9.846428,27.273636 14.735634,40.898567 2.904948,0 5.809896,0 8.714844,0 1.878946,-5.875571 3.835155,-11.717961 5.808593,-17.566401 2.626909,5.8188 5.186905,11.66704 7.773438,17.503901 2.794922,0 5.589844,0 8.384766,0 5.141866,-14.070531 10.272686,-28.145451 15.427734,-42.210937 -0.255208,0.002 -0.510417,0.004 -0.765625,0.006 z m 195.42578,7.875 c -0.57051,-0.0528 -1.03369,0.4827 -0.73129,1.01779 0.70339,2.588406 1.09215,5.182756 0.80904,7.853286 -0.44364,5.00007 -2.94067,9.86362 -6.78994,13.16817 -2.77106,2.47928 -6.15874,4.04723 -9.81967,4.70073 -2.42326,0.27403 -5.02109,0.34162 -7.47986,-0.17943 -2.43482,-0.52457 -4.66647,-1.64695 -6.86817,-2.76937 -0.65635,-0.58091 -0.5292,0.35259 -0.5966,0.80685 0.0595,1.8809 -0.21291,3.95693 0.92228,5.59646 1.39774,2.203041 3.99873,3.628441 6.62135,3.484511 7.99849,0.0961 15.99879,0.0872 23.99766,0.0428 1.77252,0.0721 3.57213,-0.33795 5.04195,-1.3583 1.79219,-1.15928 3.07612,-3.208911 2.95439,-5.388281 0.0783,-6.68215 0.0716,-13.36655 0.005,-20.04882 0.0992,-1.69106 -0.5715,-3.36163 -1.77366,-4.546926 -1.62435,-1.67779 -3.9693,-2.53203 -6.29218,-2.37944 z M 115.8001,-87.309474 c 0.0247,2.70444 -0.0138,5.40888 -0.0273,8.11328 -3.68576,1.41768 -7.43566,2.55832 -11.3111,3.31457 -1.51473,0.15329 -3.08479,0.41138 -4.589175,0.0911 -1.482037,-0.31494 -2.25203,-1.8564 -2.25297,-3.26657 -0.08245,-1.81519 -0.19492,-3.67417 0.163153,-5.46384 0.399746,-1.39613 1.669272,-2.46512 3.132672,-2.53462 4.94219,-0.52571 9.91069,-0.76705 14.86524,-1.1543 0.007,0.30013 0.013,0.60026 0.0195,0.90039 z m 204.78321,34.671871 c -0.49713,-0.0417 -0.98626,0.2461 -0.9093,0.798409 -1.25839,8.14918 -2.57649,16.29679 -3.84851,24.43402 0.0767,0.83269 1.12077,0.62932 1.71601,0.65429 0.61685,0.07 1.1797,0.0583 1.28318,-0.67199 0.22898,-0.38536 0.31537,-1.2147 0.85262,-0.69672 2.47062,1.13318 5.40034,2.10137 8.06401,1.03188 2.3362,-0.94843 3.39771,-3.48694 3.96113,-5.77254 0.62467,-2.80691 1.24814,-5.79193 0.4816,-8.63247 -0.46034,-1.83596 -2.15348,-3.18119 -4.02066,-3.34019 -2.11689,-0.1585 -4.23176,0.30335 -6.24805,0.91211 0.45676,-2.84373 0.89598,-5.69013 1.33203,-8.537109 -0.85556,-0.29635 -1.776,-0.18407 -2.66406,-0.17969 z m -253.009768,0.0566 c -1.685195,0.0417 -3.430178,0.868589 -4.139823,2.471059 -0.870544,1.72912 -1.123578,3.67745 -1.475412,5.55823 -1.040799,0.19677 -2.087812,0.36317 -3.115234,0.625 -0.2854,0.73144 -0.448449,1.54001 -0.419922,2.32422 0.389389,0.77838 1.437117,0.43253 2.13711,0.52344 0.941072,-0.26241 0.782479,0.40344 0.606005,1.08439 -0.68172,4.17447 -1.404504,8.34994 -2.00288,12.5328 0.10552,0.92337 1.261833,0.6639 1.91875,0.71093 0.488741,-0.14753 1.532629,0.36121 1.50695,-0.39446 0.77441,-4.62451 1.54034,-9.25048 2.314534,-13.87507 2.716212,-0.0429 5.406722,-0.0733 8.117188,-0.0586 -0.761505,4.53272 -1.498511,9.07017 -2.203126,13.61133 0.08558,0.88631 1.200888,0.68206 1.830469,0.71679 0.485803,-0.1508 1.487364,0.32981 1.586835,-0.29396 0.823792,-4.66104 1.568315,-9.33689 2.3659,-14.00291 1.729139,-0.0615 3.461155,-0.0175 5.191406,-0.0312 0.20033,-1.19421 0.403965,-2.38777 0.615234,-3.58008 -1.727231,-0.0221 -3.454432,-0.0465 -5.18164,-0.0703 0.283872,-1.32897 0.285601,-2.83987 1.15039,-3.95313 0.774561,-0.6756 1.912935,-0.34984 2.85191,-0.4834 0.865766,-0.0258 1.731582,-0.05 2.597309,-0.0771 0.04113,-0.83067 0.607373,-1.9329 -0.173828,-2.57032 -1.590573,-0.570449 -3.329508,-0.869989 -5.023438,-0.710929 -1.718623,0.14415 -3.237515,1.347709 -3.791015,2.978509 -0.642052,1.59875 -0.852214,3.31983 -1.226563,4.99024 -0.999614,0.2691 -2.112712,0.22009 -3.029297,0.73242 0.324708,-0.71794 0.121517,-1.0173 -0.66875,-0.84961 -1.461979,0 -2.923958,0 -4.385937,0 0.328326,-1.36803 0.260127,-2.98672 1.259765,-4.08203 0.690425,-0.53068 1.626123,-0.29559 2.412445,-0.40194 0.98607,-0.032 1.972448,-0.0545 2.958649,-0.0824 0.03795,-0.81765 0.629239,-1.92399 -0.183594,-2.53515 -1.372054,-0.567909 -2.913275,-0.842909 -4.40039,-0.806639 z m 118.359378,0.0703 c -0.49904,-0.0363 -0.99045,0.24218 -0.9118,0.800269 -0.96021,6.35769 -2.08489,12.69298 -2.9007,19.07082 -0.2147,1.61626 -0.21064,3.46955 1.00586,4.71875 1.01902,1.20342 2.76376,1.09249 4.19608,1.15995 0.4963,-0.11618 1.40429,0.25758 1.62767,-0.18342 0.0578,-0.87006 0.5196,-1.82242 0.10984,-2.65817 -1.05857,-0.46647 -2.29036,-0.46433 -3.30664,-1.00781 -0.55264,-0.65755 -0.0985,-1.60191 -0.0801,-2.36808 0.87135,-6.27686 1.97526,-12.52279 2.85548,-18.79598 -0.0168,-0.902109 -1.12891,-0.750549 -1.74609,-0.759769 -0.28321,0.008 -0.56641,0.0156 -0.84961,0.0234 z m -99.259769,2.771479 c -0.800731,-0.0937 -1.589149,0.44967 -1.641287,1.28192 -0.0811,0.82456 -0.425333,1.71269 -0.124338,2.51496 0.628727,0.77195 1.776884,0.50765 2.654358,0.52796 0.848651,0.047 1.451854,-0.71409 1.481084,-1.51334 0.06372,-0.83803 0.554779,-1.97099 -0.24677,-2.59079 -0.640726,-0.34924 -1.422498,-0.18577 -2.123047,-0.22071 z m 20.425779,0 c -0.78765,-0.0884 -1.61406,0.4034 -1.66715,1.24472 -0.0847,0.85031 -0.42829,1.78384 -0.0829,2.60489 0.57944,0.74316 1.67096,0.43185 2.49035,0.48475 0.85263,0.0863 1.56123,-0.60525 1.58775,-1.44304 0.0491,-0.83235 0.50632,-1.84401 -0.084,-2.5671 -0.60408,-0.50684 -1.51837,-0.27293 -2.24414,-0.32422 z m 187.10352,0.40039 c -0.46686,0.14328 -1.36541,-0.25473 -1.4043,0.42578 -0.39273,1.43423 -0.78761,2.8674 -1.19726,4.29688 -1.07607,0.21719 -2.16118,0.38701 -3.24219,0.57812 -0.14564,0.96244 -0.29831,1.87819 -0.47461,2.83204 1.03703,0.009 2.07508,-0.0222 3.11133,0.0254 -0.4401,3.37828 -1.19405,6.72837 -1.32135,10.13902 -0.088,1.58509 0.69965,3.28632 2.24517,3.87855 1.47636,0.59794 3.11273,0.3167 4.66407,0.41797 0.2086,-0.94951 0.2842,-1.91876 0.30859,-2.88867 -1.18355,-0.36867 -2.51859,-0.41401 -3.58203,-1.08008 -0.38355,-0.90449 0.0304,-1.94265 0.082,-2.88867 0.37371,-2.52504 0.7348,-5.10143 1.16406,-7.57422 1.49357,-0.11925 3.02649,0.11953 4.49805,-0.15429 0.68893,-0.33418 0.50165,-1.28309 0.7044,-1.9164 0.1447,-0.52866 0.193,-1.32325 -0.54888,-1.35149 -1.35858,-0.13011 -2.72969,-0.0453 -4.09302,-0.0934 0.13248,-1.34897 0.56595,-2.68693 0.49805,-4.04493 -0.13768,-0.6771 -0.86906,-0.65551 -1.41211,-0.60156 z m -29.37305,0.50391 c -3.01616,0.15022 -6.17571,1.90111 -7.125,4.90625 -1.05785,5.45532 -1.81003,10.96794 -2.73633,16.43945 -0.0428,0.85315 1.02314,0.74776 1.60821,0.73828 0.56504,7.5e-4 1.23476,0.16935 1.33191,-0.57135 0.46797,-1.03509 1.12411,-2.01144 1.14731,-3.18379 0.65041,-3.96085 1.13195,-7.95457 1.93178,-11.85685 0.32854,-1.70449 1.90871,-2.99081 3.56673,-3.30793 1.05803,-0.11675 2.32786,-0.20792 3.19074,0.51286 0.43835,0.82162 -0.0139,1.91469 -0.63881,2.52776 -1.48667,1.28993 -3.59492,1.979 -4.54998,3.8129 -0.56069,1.51329 -0.8575,3.54727 0.45118,4.76953 1.08873,0.96702 2.63687,1.02202 3.8496,1.74023 0.16459,0.41423 -0.12756,0.96324 -0.2539,1.38477 -0.53654,1.14027 -1.94365,0.80002 -2.95312,0.85217 -1.3075,-0.0315 -2.62452,-9.4e-4 -3.91602,-0.24084 -0.14788,0.95087 -0.28006,1.90373 -0.4082,2.85742 0.7816,0.66045 1.92055,0.51424 2.87144,0.73847 2.17766,0.33999 4.67643,0.39716 6.50198,-1.02932 1.5244,-1.15947 1.7467,-3.20781 1.84186,-4.98102 0.11929,-1.33527 -0.89285,-2.47961 -2.12089,-2.85412 -0.84492,-0.40736 -1.91251,-0.39755 -2.62369,-1.03807 -0.1108,-1.05625 1.06682,-1.60175 1.82906,-2.07313 1.89516,-0.89984 3.35592,-2.65722 3.77919,-4.72596 0.46293,-1.70677 -0.23804,-3.6946 -1.8509,-4.52282 -1.41869,-0.81481 -3.11887,-0.97204 -4.72415,-0.89489 z m -42.51953,3.55469 c -1.80352,0.0703 -3.44125,0.90439 -4.97266,1.78711 -0.19538,-0.46652 0.0188,-1.41603 -0.45,-1.56055 -0.90888,0.0456 -1.85184,-0.1141 -2.73359,0.16601 -0.88099,5.98499 -1.75542,11.97095 -2.62891,17.95704 0.63943,0.65315 1.66842,0.35442 2.4906,0.42724 0.60989,0.0759 1.36561,-0.1975 1.33097,-0.92568 0.67079,-4.14966 1.15948,-8.3427 1.94796,-12.46445 1.79109,-0.7905 3.73207,-1.79712 5.74466,-1.32014 0.88597,0.28735 0.99945,1.29229 0.86306,2.08179 -0.45535,4.17216 -1.17223,8.31155 -1.75811,12.46686 1.05702,0.23547 2.16989,0.20359 3.24024,0.10156 0.86935,-0.25025 0.60602,-1.37089 0.82459,-2.04876 0.58002,-3.73524 1.10329,-7.50075 1.64611,-11.22858 1.79631,-1.11341 3.95526,-1.75573 6.06836,-1.40039 0.93586,0.38862 1.01683,1.52574 0.81752,2.38528 -0.4503,3.86915 -1.15795,7.80616 -1.61635,11.70652 0.14912,0.84355 1.23777,0.59756 1.85938,0.65234 0.5997,-0.017 1.20813,0.0223 1.79297,-0.13867 0.59359,-4.35189 1.39082,-8.68061 1.79437,-13.05543 0.32034,-2.46336 -1.42987,-5.10848 -3.93049,-5.50553 -2.70459,-0.34623 -5.45094,0.67066 -7.6256,2.23674 -0.9546,-1.63881 -2.85049,-2.45588 -4.70508,-2.32031 z m 24.78711,0.30273 c -2.40705,0.11793 -4.7794,1.39553 -5.93917,3.55353 -1.42001,2.45923 -1.82981,5.35519 -2.03429,8.14472 -0.0956,2.06991 0.18607,4.55743 2.0387,5.8285 1.557,1.08225 3.55756,0.82094 5.33275,0.64582 1.34174,-0.1872 2.53485,-0.86529 3.72506,-1.46749 0.15227,0.47808 0.074,1.20862 0.35976,1.52148 0.86836,0 1.73672,0 2.60508,0 0.73026,-5.17987 1.55115,-10.35401 2.19828,-15.54129 -0.11355,-1.01444 -1.29397,-1.35248 -2.092,-1.716 -1.95857,-0.76722 -4.09592,-1.0868 -6.19417,-0.96927 z m 60.39258,0.0293 c -2.13936,0.0435 -4.26634,1.03475 -5.48953,2.82516 -2.07283,3.04862 -2.55566,6.88232 -2.45791,10.48952 -0.0154,1.98255 1.08601,4.12884 3.09275,4.70604 1.47381,0.435 3.06967,0.33418 4.56953,0.0828 1.18601,-0.33031 2.28587,-0.89543 3.39453,-1.41797 0.19764,0.437 -0.007,1.31763 0.46155,1.43798 0.79449,-0.0623 1.73273,0.29169 2.43298,-0.18212 0.37378,-0.60679 0.24068,-1.44362 0.42025,-2.13629 0.58608,-4.33923 1.33812,-8.65869 1.80046,-13.01214 0.16354,-1.04047 -1.0683,-1.38223 -1.78711,-1.76172 -2.02812,-0.84673 -4.25136,-1.14062 -6.4375,-1.03125 z m -134.30274,-0.01 c -2.22382,0.0241 -4.5334,0.92502 -5.79886,2.83097 -2.0733,3.03692 -2.49656,6.85817 -2.45497,10.44691 -0.0132,2.06815 1.17105,4.3142 3.29358,4.84251 2.26781,0.45143 4.70904,0.19111 6.75682,-0.92556 0.39066,-0.0819 1.12907,-0.89497 1.0878,-0.1142 0.19096,0.39656 -0.029,1.31453 0.63868,1.1264 0.73841,0 1.47682,0 2.21523,0 0.82514,-5.16416 1.53907,-10.34743 2.25391,-15.52734 -0.15412,-1.11235 -1.44785,-1.47911 -2.34559,-1.83394 -1.81051,-0.60723 -3.7372,-0.90024 -5.6466,-0.84575 z m -122.935544,0.043 c -2.394891,0.0292 -5.020532,0.85692 -6.330078,3.00586 -1.301842,2.17595 -1.759239,4.73572 -2.126611,7.21001 -0.05556,1.68074 -0.199882,3.39944 0.124658,5.05952 0.506842,1.62557 2.050757,3.0413 3.826835,2.95113 2.85745,0.0803 5.781488,0.0265 8.548885,-0.7508 0.978766,-0.39817 0.871266,-1.64578 0.93678,-2.51673 -0.243602,-0.86162 -1.220746,-0.28558 -1.828125,-0.29883 -2.474565,0.21137 -4.955611,0.42504 -7.439453,0.13281 -1.130195,-0.47018 -0.867877,-1.92196 -0.863281,-2.90039 -0.02401,-0.48823 0.03866,-0.91863 0.616984,-0.66686 3.15646,0.4143 6.662142,0.29182 9.350509,-1.61148 2.034674,-1.46033 2.937632,-4.26547 2.243444,-6.65135 -0.599076,-1.87545 -2.659674,-2.68879 -4.46217,-2.86083 -0.860137,-0.11292 -1.7317,-0.12409 -2.598377,-0.10206 z m 67.123044,0.0156 c -2.22786,0.0735 -4.58882,0.89947 -5.86048,2.83604 -1.58914,2.38748 -1.99113,5.32396 -2.33874,8.10927 -0.047,1.61486 -0.15446,3.30841 0.39218,4.8525 0.65722,1.36467 2.03841,2.47149 3.61002,2.41263 2.95907,0.1698 5.97411,-0.005 8.82952,-0.82896 0.56886,-0.24366 0.47511,-1.04696 0.62928,-1.5676 0.0559,-0.40645 0.19338,-1.07451 -0.0922,-1.31779 -1.49681,0.0285 -2.91702,0.36581 -4.43229,0.32949 -1.5618,-1.7e-4 -3.13981,0.12679 -4.69232,-0.0522 -1.16305,-0.50804 -0.85716,-2.00251 -0.84089,-3.01805 -0.0758,-0.55307 0.20432,-0.68023 0.6901,-0.53444 3.21903,0.41987 6.80053,0.22319 9.49151,-1.78664 1.81204,-1.34855 2.49981,-3.82088 2.13975,-5.98313 -0.30594,-1.8387 -2.07472,-2.97376 -3.80546,-3.2442 -1.22276,-0.24174 -2.47867,-0.25829 -3.71993,-0.20697 z m 18.45508,0.0586 c -1.82976,0.11879 -3.48674,1.03098 -5.11133,1.80664 -0.0948,-0.52026 -0.1926,-1.03975 -0.29492,-1.55859 -0.88411,-0.0365 -1.76828,-0.0717 -2.65234,-0.10938 -0.90621,5.77913 -1.8388,11.55432 -2.70313,17.33984 0.28651,0.82762 1.35754,0.54538 2.04219,0.61133 0.48236,-0.13005 1.47077,0.34797 1.41094,-0.43359 0.70411,-4.20295 1.35158,-8.41612 2.02148,-12.625 1.87253,-0.7682 3.78907,-1.66666 5.86445,-1.56144 1.09917,-0.20441 2.0736,0.94478 1.75378,1.99628 -0.47938,4.02118 -1.28769,8.01247 -1.77253,12.02219 0.21776,0.8094 1.27757,0.54013 1.91094,0.60156 0.48894,-0.14748 1.51457,0.36086 1.50805,-0.39209 0.65701,-4.0818 1.41088,-8.15032 1.88292,-12.25838 0.20675,-1.79866 -0.38332,-3.84975 -2.06362,-4.7675 -0.98969,-0.70174 -2.21886,-0.74584 -3.38431,-0.6798 -0.13752,0.003 -0.27504,0.005 -0.41257,0.008 z m 59.44922,0.0234 c -1.82738,0.0255 -3.48583,1.35965 -3.95508,3.11901 -0.4794,1.67409 -0.83809,3.45874 -0.58203,5.2013 0.25737,1.54638 1.84488,2.50899 3.34042,2.42126 2.19457,0.13431 4.4067,0.0367 6.59122,0.28382 0.37896,0.50406 0.0336,1.25074 0.002,1.84056 -0.13265,0.7869 -0.34644,2.0173 -1.40806,1.89186 -3.08953,0.0891 -6.18106,0.0693 -9.27148,0.10742 -0.0846,0.91593 -0.44165,1.85348 -0.17188,2.76758 2.33339,0.36108 4.70475,0.4378 7.05609,0.63039 1.65618,-0.059 3.44388,0.2112 4.97907,-0.55227 1.62145,-0.86181 2.08903,-2.77489 2.31646,-4.45119 0.26787,-1.65066 0.43403,-3.72745 -1.02349,-4.89646 -1.5351,-1.22978 -3.62995,-0.9029 -5.46054,-0.99068 -1.15008,-0.0567 -2.35651,0.10585 -3.46915,-0.14409 -0.11894,-1.10127 0.20807,-2.23145 0.49414,-3.29297 0.82246,-0.83252 2.11006,-0.4521 3.15547,-0.56737 2.3453,-0.01 4.69062,-0.009 7.03594,-0.0108 0.0945,-0.92986 0.39835,-1.86484 0.24414,-2.80274 -1.32214,-0.44308 -2.76223,-0.32801 -4.13766,-0.4598 -1.90918,-0.10299 -3.82392,-0.15312 -5.73539,-0.0949 z m 82.16016,0 c -1.82738,0.0255 -3.48583,1.35965 -3.95508,3.11901 -0.48921,1.71719 -0.86116,3.55744 -0.55078,5.33997 0.30182,1.4493 1.79816,2.31961 3.21118,2.27695 2.17691,0.16153 4.38217,-0.0146 6.54358,0.30178 0.64646,0.0955 0.22318,0.9354 0.22118,1.34458 -0.21432,0.83092 -0.1359,2.10601 -1.1654,2.37161 -3.18807,0.19266 -6.39027,0.0551 -9.58398,0.0977 -0.0889,0.91926 -0.4456,1.86134 -0.17578,2.7793 2.33262,0.36577 4.70489,0.43834 7.05609,0.63234 1.54075,-0.0517 3.16701,0.17114 4.63639,-0.38946 1.50772,-0.68314 2.38249,-2.26752 2.53528,-3.87124 0.22995,-1.68697 0.7221,-3.66025 -0.42852,-5.13168 -1.11067,-1.50237 -3.15454,-1.46113 -4.83538,-1.48981 -1.5169,-0.0646 -3.06031,0.0961 -4.55956,-0.13297 -0.1589,-1.00753 0.18637,-2.04554 0.39576,-3.03186 0.25989,-0.93 1.48247,-0.80122 2.24156,-0.83147 2.67589,-0.0412 5.3525,-0.0178 8.02869,-0.0273 0.0911,-0.92999 0.41092,-1.86285 0.25586,-2.80078 -1.25496,-0.4365 -2.63031,-0.32223 -3.93987,-0.45166 -1.97441,-0.10843 -3.95425,-0.16572 -5.93122,-0.10498 z m -192.724613,0.59179 c -0.878708,5.62062 -1.786333,11.23687 -2.626953,16.86328 0.288264,0.82992 1.36338,0.54432 2.05,0.61133 0.486466,-0.13049 1.4872,0.35055 1.420703,-0.4375 0.950872,-5.82465 1.825438,-11.66261 2.794922,-17.48437 -1.189453,0 -2.378906,0 -3.56836,0 -0.02344,0.14909 -0.04687,0.29818 -0.07031,0.44726 z m 5.166015,0.004 c -0.153633,1.0392 -0.342177,2.0814 -0.291015,3.13672 2.777346,0.0205 5.554693,0.0409 8.332031,0.0625 -3.310928,3.66697 -6.620562,7.33512 -9.93164,11.00195 -0.109336,1.05275 -0.248659,2.10212 -0.408204,3.14844 4.399734,-0.025 8.799475,-0.0491 13.199216,-0.0723 0.0968,-0.96637 0.3831,-1.96052 0.33985,-2.91406 -0.34241,-0.62569 -1.248944,-0.38102 -1.857222,-0.47127 -1.975404,-0.0552 -3.951976,-0.0486 -5.927937,-0.0697 3.270808,-3.6829 6.544362,-7.36336 9.814449,-11.04688 0.11197,-1.07914 0.25161,-2.15509 0.42188,-3.22656 -4.541017,0 -9.082032,0 -13.623048,0 -0.02279,0.15039 -0.04557,0.30078 -0.06836,0.45117 z m 16.417968,-0.44336 c -0.5754,-0.0348 -1.35506,0.14475 -1.27944,0.87667 -0.80711,5.42602 -1.73781,10.83626 -2.49595,16.26786 0.008,0.90823 1.12658,0.76284 1.74609,0.76953 0.53574,-0.0648 1.30734,0.10453 1.67936,-0.29609 0.85462,-5.6735 1.79953,-11.34361 2.65853,-17.00469 -0.14345,-0.84475 -1.24013,-0.56739 -1.8578,-0.61967 -0.15026,0.002 -0.30053,0.004 -0.45079,0.006 z m 44.3457,0.0234 c -2.25976,0.011 -4.51952,0.0228 -6.77929,0.0332 -0.0969,1.00639 -0.36336,2.04174 -0.34908,3.03141 0.39257,0.67388 1.35737,0.38236 2.01343,0.47765 2.11294,0.0387 4.22684,-5.2e-4 6.33955,0.0573 -3.26405,3.70752 -6.67535,7.32457 -9.88672,11.0957 -0.23145,1.00526 -0.24367,2.04577 -0.35742,3.06836 4.24394,-0.0355 8.49504,0.0835 12.73438,-0.10156 0.72486,0.003 0.38199,-1.04036 0.59573,-1.53834 0.0875,-0.60672 0.18226,-1.21254 0.27146,-1.81908 -2.64517,-0.0232 -5.29037,-0.0419 -7.93555,-0.0625 3.25511,-3.71427 6.61401,-7.33867 9.74805,-11.1543 0.19023,-0.86157 0.32942,-1.7635 0.3626,-2.63382 -0.29821,-0.59418 -1.1771,-0.37609 -1.74385,-0.45098 -1.67108,-0.0234 -3.34214,-0.008 -5.01329,-0.003 z m 23.38868,3.08008 c 1.16602,0.01 2.32794,0.1962 3.46093,0.46289 -0.43018,3.22864 -0.95252,6.44442 -1.44531,9.66406 -1.99525,0.86582 -4.31064,1.66469 -6.5332,1.16016 -1.30308,-0.6048 -1.15397,-2.27256 -1.0693,-3.46307 0.24814,-2.2382 0.62918,-4.52619 1.86454,-6.41315 0.85656,-1.0878 2.42271,-1.35083 3.72234,-1.41089 z m 134.73047,0.041 c 1.1306,0.0288 2.22597,0.14639 3.35937,0.37696 -0.46031,3.25086 -0.96256,6.51445 -1.54492,9.72265 -1.95202,0.93573 -4.13775,1.47325 -6.30664,1.23242 -1.27041,-0.38453 -1.24847,-1.91299 -1.22094,-2.99478 0.13673,-2.31017 0.50328,-4.72055 1.72289,-6.72787 0.86646,-1.37964 2.55054,-1.62177 3.99024,-1.60938 z m -60.17188,0.0234 c 1.06335,0.025 2.13567,0.1044 3.16406,0.39062 -0.53322,3.24061 -0.90672,6.51817 -1.59765,9.72657 -1.77719,0.76904 -3.67421,1.3931 -5.63764,1.2337 -1.1164,0.12729 -1.90358,-0.96334 -1.84088,-1.99737 -0.008,-2.50618 0.351,-5.09426 1.46926,-7.36043 0.64065,-1.45458 2.28405,-2.01707 3.77018,-1.98573 0.22397,-0.0118 0.44849,-0.004 0.67267,-0.007 z m -130.01367,0.10156 c 0.95878,0.0703 1.87496,-0.10403 2.67578,0.45899 0.61164,1.15988 -0.21813,2.69614 -1.37023,3.17649 -1.98942,1.06747 -4.29486,0.99438 -6.46484,1.03322 -0.57181,0.0514 -0.0421,-0.75302 -0.0388,-1.12212 0.31507,-1.5075 1.29241,-3.02562 2.89688,-3.3453 0.7434,-0.22844 1.53343,-0.18151 2.30119,-0.20128 z m -67.576174,0.006 c 0.945042,0.0774 2.111924,-0.15739 2.84961,0.57227 0.498369,1.02946 -0.213686,2.31115 -1.124318,2.8723 -2.034518,1.26041 -4.480946,1.17289 -6.773279,1.21743 -0.585971,0.008 0.03689,-0.9159 0.0226,-1.31825 0.291469,-1.21017 1.077333,-2.61128 2.415898,-3.02535 0.827575,-0.35691 1.72921,-0.30899 2.609492,-0.3184 z m 275.230464,0.12695 c 0.72167,0.0656 1.57296,-0.14903 2.20118,0.2793 0.99927,1.3875 0.52519,3.22532 0.38867,4.75391 -0.33108,1.93876 -0.62447,4.11627 -2.09961,5.55468 -1.21113,0.90916 -2.85133,0.46944 -4.20898,0.20704 -0.8649,-0.22643 -1.7081,-0.52597 -2.53321,-0.86914 0.48294,-3.11483 0.90816,-6.24911 1.56055,-9.3418 1.53347,-0.40487 3.10419,-0.61169 4.6914,-0.58399 z" />
    </g>
  </g>
</svg>
