<?xml version="1.0" encoding="UTF-8" standalone="no"?>
<svg
   xmlns:dc="http://purl.org/dc/elements/1.1/"
   xmlns:cc="http://creativecommons.org/ns#"
   xmlns:rdf="http://www.w3.org/1999/02/22-rdf-syntax-ns#"
   xmlns:svg="http://www.w3.org/2000/svg"
   xmlns="http://www.w3.org/2000/svg"
   xmlns:sodipodi="http://sodipodi.sourceforge.net/DTD/sodipodi-0.dtd"
   xmlns:inkscape="http://www.inkscape.org/namespaces/inkscape"
   inkscape:version="1.0 (4035a4fb49, 2020-05-01)"
   sodipodi:docname="watttron_outer.svg"
   id="svg1241"
   version="1.1"
   viewBox="0 0 100 34"
   height="34mm"
   width="100mm">
  <defs
     id="defs1235" />
  <sodipodi:namedview
     inkscape:window-maximized="1"
     inkscape:window-y="0"
     inkscape:window-x="1920"
     inkscape:window-height="1015"
     inkscape:window-width="1920"
     showgrid="false"
     inkscape:document-rotation="0"
     inkscape:current-layer="layer1"
     inkscape:document-units="mm"
     inkscape:cy="-88.257135"
     inkscape:cx="-50.873301"
     inkscape:zoom="1.4"
     inkscape:pageshadow="2"
     inkscape:pageopacity="0.0"
     borderopacity="1.0"
     bordercolor="#666666"
     pagecolor="#ffffff"
     id="base" />
  <metadata
     id="metadata1238">
    <rdf:RDF>
      <cc:Work
         rdf:about="">
        <dc:format>image/svg+xml</dc:format>
        <dc:type
           rdf:resource="http://purl.org/dc/dcmitype/StillImage" />
        <dc:title></dc:title>
      </cc:Work>
    </rdf:RDF>
  </metadata>
  <g
     id="layer1"
     inkscape:groupmode="layer"
     inkscape:label="Layer 1">
    <path
       d=""
       id="path3315"
       style="fill:#000000;stroke-width:0.0405152" />
    <g
       transform="matrix(0.3195453,0,0,0.3195453,-7.5443125,40.395663)"
       id="g3317" />
    <path
       id="path3407"
       d="M -1.9136733,34.39731 -2.3918787,33.902737 V 17.000001 0.0972659 l 0.4782054,-0.49457234 0.4782055,-0.49457228 H 49.954386 c 46.340605,0 51.420644,0.022306 51.703254,0.22702385 0.76933,0.55730657 0.73372,-0.29978276 0.73372,17.66485587 0,18.226492 0.0489,17.196186 -0.83928,17.671223 -0.36657,0.196052 -6.131919,0.220655 -51.700063,0.220655 H -1.4354678 Z M 101.13707,33.180402 101.54748,32.705356 V 16.87186 1.0383667 l -0.30491,-0.4009001 c -0.65533,-0.86162731 3.14747,-0.80275189 -51.273467,-0.79382291 -38.386677,0.006298 -50.15378668,0.048643 -50.52767877,0.18182805 C -0.83706271,0.12467216 -1.1837067,0.41094489 -1.3673056,0.69335387 L -1.6886355,1.1876181 V 16.744969 c 0,17.014436 -0.040254,16.18262 0.8095262,16.728301 0.36201423,0.232464 3.52931,0.245818 50.9958823,0.21502 l 50.609897,-0.03283 z"
       style="fill:#000000;stroke:#000000;stroke-width:0.216243" />
  </g>
</svg>
